<?xml version="1.0" encoding="UTF-8" standalone="no"?>
<!-- Created with Inkscape (http://www.inkscape.org/) -->

<svg
   version="1.1"
   id="svg1"
   width="850"
   height="850"
   viewBox="0 0 850 849.99999"
   sodipodi:docname="meet_asu.svg"
   inkscape:version="1.4.3 (0d15f75, 2025-12-25)"
   xmlns:inkscape="http://www.inkscape.org/namespaces/inkscape"
   xmlns:sodipodi="http://sodipodi.sourceforge.net/DTD/sodipodi-0.dtd"
   xmlns="http://www.w3.org/2000/svg"
   xmlns:svg="http://www.w3.org/2000/svg">
  <defs
     id="defs1" />
  <sodipodi:namedview
     id="namedview1"
     pagecolor="#ffffff"
     bordercolor="#000000"
     borderopacity="0.25"
     inkscape:showpageshadow="2"
     inkscape:pageopacity="0.0"
     inkscape:pagecheckerboard="0"
     inkscape:deskcolor="#d1d1d1"
     inkscape:zoom="0.25"
     inkscape:cx="404"
     inkscape:cy="558"
     inkscape:window-width="1512"
     inkscape:window-height="846"
     inkscape:window-x="0"
     inkscape:window-y="33"
     inkscape:window-maximized="1"
     inkscape:current-layer="g2" />
  <g
     inkscape:groupmode="layer"
     inkscape:label="Image"
     id="g1"
     transform="translate(-955.19936,-560.47373)">
    <g
       id="g2"
       transform="translate(1315.8461,-203.45323)"
       style="fill:#377171;fill-opacity:1">
      <g
         id="g10"
         transform="matrix(0.60633193,0,0,0.61063652,-40.660162,557.1608)">
        <path
           style="fill:#e83030;fill-opacity:1;stroke:none;stroke-width:3.74569;stroke-opacity:1"
           d="m -480.27008,870.67136 c 1.25977,-189.6566 1.52484,-195.1702 10.64037,-221.443 41.88961,-120.7333 161.11844,-203.2937 313.77569,-217.27486 116.005201,-10.6244 237.530743,30.99956 314.93608,107.86946 27.89105,27.6981 56.74595,74.2478 68.86135,111.0894 9.2509,28.1308 9.41429,31.9591 9.41429,220.601 v 191.97344 h -58.32126 -58.32117 l -2.20881,-188.60554 c -2.14058,-182.7761 -2.49122,-189.282 -11.34566,-210.4971 -27.744413,-66.4753 -95.676267,-117.5155 -177.052973,-133.0277 -118.787007,-22.6435 -239.342437,35.969 -280.541617,136.3956 -6.91782,16.8626 -7.72687,35.5135 -9.02288,207.9712 l -1.42379,189.44754 h -60.34084 -60.34097 z"
           id="path10" />
        <path
           style="fill:#428a72;fill-opacity:1;stroke:none;stroke-width:3.74569;stroke-opacity:1"
           d="m 116.05986,1218.1849 c 1.25978,189.6566 1.52485,195.1702 10.64038,221.443 41.88961,120.7333 161.11843,203.2937 313.77566,217.2749 116.0052,10.6244 237.53073,-30.9996 314.93607,-107.8695 27.89105,-27.6981 56.74595,-74.2478 68.86136,-111.0894 9.25089,-28.1308 9.41429,-31.9591 9.41429,-220.601 v -191.9734 h -58.32127 -58.32117 l -2.2088,188.6055 c -2.14058,182.7761 -2.49123,189.282 -11.34567,210.4971 -27.74441,66.4753 -95.67626,117.5155 -177.05297,133.0277 -118.78701,22.6435 -239.3424,-35.969 -280.54158,-136.3956 -6.91782,-16.8626 -7.72687,-35.5135 -9.02289,-207.9712 l -1.42378,-189.4475 h -60.34084 -60.34097 z"
           id="path10-7" />
      </g>
      <path
         id="rect16"
         style="fill:#374c71;fill-opacity:1;stroke:#000000;stroke-width:0.547626;stroke-opacity:1"
         d="m 225.02425,821.08721 c 0,0.50159 3.57835,11.43478 7.95245,24.2967 12.18827,35.84073 15.03218,47.989 15.08093,64.42053 0.10287,34.83565 -20.76248,57.23434 -53.31834,57.23434 -12.76563,0 -25.905,-4.45575 -55.18617,-18.71441 -45.17887,-22.00025 -62.892,-27.91934 -92.469525,-30.89707 -38.181483,-3.84398 -77.76266,4.41585 -115.198356,24.03914 -17.894298,9.37998 -23.696014,13.80627 -37.474639,28.59335 -25.66894,27.5479 -37.88027,65.79191 -41.44558,99.91281 l -1.71275,16.3929 h -0.85279 l 0.47196,2.4298 c 0.25975,1.3363 0.96212,5.696 1.56063,9.6888 1.61596,10.781 5.53296,24.3407 10.0429,34.7671 19.5056,45.0951 60.055788,74.67 129.001168,94.0861 7.228829,2.0356 27.020079,6.8772 43.980059,10.7589 34.293095,7.8487 48.517393,11.6921 64.512003,17.432 21.86227,7.8455 42.91859,20.3068 52.96028,31.3427 12.25078,13.4635 17.33332,31.5202 13.83883,49.1626 -5.15891,26.0456 -27.60796,44.6067 -62.05501,51.3049 -13.87917,2.6988 -38.530634,2.3966 -52.068032,-0.6378 -16.330829,-3.6606 -40.109482,-12.6804 -72.289375,-27.4228 -43.375886,-19.8713 -53.812763,-23.086 -78.354071,-24.1331 -54.505332,-2.3256 -97.539642,25.9303 -121.210262,79.5865 -3.71875,8.4296 -8.57847,22.254 -11.20621,31.5283 -0.26371,0.1016 -0.40167,0.1633 -0.40167,0.1703 0,0.076 -2.84613,11.6327 -3.23506,13.4739 -2.52022,11.9299 -4.24613,25.4277 -5.01213,39.1873 -0.24914,4.4752 -0.54227,18.3581 -0.44202,20.9276 0.0435,1.1158 0.12086,4.1755 0.17184,6.8004 0.17429,8.9513 0.91358,18.7158 2.06689,27.299 0.46447,3.457 1.43894,9.3622 1.58753,9.6193 0.0708,0.1227 4.27244,0.4566 10.92148,0.8675 5.94322,0.3676 18.6077,1.1487 28.14273,1.7357 9.53503,0.5869 25.29841,1.5667 35.03018,2.1775 9.73155,0.6109 17.76482,1.1213 17.8512,1.1342 0.32146,0.049 -0.0698,-1.3556 -1.01412,-3.6389 -0.53448,-1.2929 -1.03344,-2.5652 -1.10951,-2.8276 -0.0759,-0.2625 -0.45891,-1.208 -0.85066,-2.1005 -2.2352,-5.093 -5.79564,-14.0044 -8.1232,-20.3304 -8.68001,-23.5926 -14.16805,-44.2415 -15.678,-58.9875 -0.4747,-4.6362 -0.66132,-17.3504 -0.66223,-25.7039 l -1.04639,-0.379 h 1.03395 l 0.0121,-0.056 c 0,-4.217 0.0546,-7.2222 0.14079,-7.3221 4.1e-4,-3e-4 0,0 0.0101,0 v 0 c 5e-4,0 0,0 0.0101,0 v 0 c 0.0263,0.035 0.0587,0.3451 0.091,0.9749 l 0.22355,4.2768 1.27812,-5.7039 c 2.95637,-13.1968 9.00652,-25.0753 17.23459,-33.8364 11.69325,-12.4504 24.56671,-17.6706 43.67176,-17.7095 18.849847,-0.039 31.538302,5.559 58.54867,25.8278 35.594885,26.7101 69.756995,41.2295 109.190698,46.4079 5.00456,0.6571 10.464286,1.3957 12.132444,1.6405 6.702638,0.9834 47.098868,-0.4575 57.059528,-2.0352 31.1768,-4.9379 64.50697,-17.6612 86.5072,-33.0238 41.30001,-28.8392 63.18312,-71.2746 63.18312,-122.5258 0,-59.2088 -28.07252,-105.1694 -80.95279,-132.5352 -29.12538,-15.0726 -59.31518,-24.9566 -116.19184,-38.0435 -43.276765,-9.9576 -60.285803,-15.4636 -80.376452,-26.0158 -15.188145,-7.977 -25.024392,-15.5053 -31.084949,-23.7935 l -3.960594,-5.4166 c -0.0202,-0.1489 -0.0607,-0.2921 -0.124216,-0.43 -0.953129,-2.0786 -8.305155,-19.5664 -8.305155,-30.9412 0,-18.9828 0.460236,-21.4235 5.599922,-29.7131 6.89918,-11.1279 18.648965,-20.4275 33.108245,-26.20579 8.847816,-3.53593 15.803534,-4.3907 35.759659,-4.3907 31.145537,0 39.866518,2.3868 82.24234,22.50709 40.95843,19.4473 49.04277,22.4203 69.28089,25.4773 34.36218,5.1903 66.1569,-6.4156 91.37137,-33.3533 12.04999,-12.87359 16.58583,-19.82242 25.11957,-38.48779 14.18665,-31.0295 16.99916,-46.48339 15.9049,-87.37083 -0.68259,-25.44201 -1.80215,-35.45853 -5.21664,-46.66136 l -4.34823,-14.26484 -13.65796,-1.37733 c -15.23124,-1.53645 -67.24305,-1.92033 -67.24305,-0.49634 z m -395.73308,632.47129 -0.46367,2.0705 c -10e-5,0.1433 0,0.2885 0,0.4344 l 0.60639,0.2189 z" />
    </g>
  </g>
</svg>
